<?xml version="1.0" standalone="no"?>
<!DOCTYPE svg PUBLIC "-//W3C//DTD SVG 20010904//EN"
 "http://www.w3.org/TR/2001/REC-SVG-20010904/DTD/svg10.dtd">
<svg version="1.0" xmlns="http://www.w3.org/2000/svg"
 width="453.000000pt" height="130.000000pt" viewBox="0 0 453.000000 130.000000"
 preserveAspectRatio="xMidYMid meet">

<g transform="translate(0.000000,130.000000) scale(0.100000,-0.100000)"
fill="#000000" stroke="none">
<path d="M607 1096 c-59 -21 -110 -62 -141 -111 -26 -40 -33 -45 -65 -45 -77
-1 -168 -82 -178 -161 -5 -34 -16 -53 -48 -86 -67 -66 -81 -144 -41 -228 32
-69 82 -111 150 -125 87 -18 101 -13 101 35 l0 40 -57 5 c-69 6 -108 33 -126
85 -22 66 19 150 85 169 18 6 20 12 16 44 -11 83 50 150 126 139 20 -3 45 -9
57 -12 18 -6 22 -1 27 32 8 50 43 102 85 126 40 24 117 25 159 4 31 -17 83
-71 83 -88 0 -5 23 -9 50 -9 96 0 150 -42 165 -127 5 -33 14 -47 40 -63 38
-23 75 -91 75 -136 0 -44 -40 -116 -79 -141 -21 -14 -49 -23 -72 -23 l-39 0 0
-45 0 -45 43 6 c222 33 304 280 143 433 -20 19 -36 41 -36 48 0 24 -31 77 -68
116 -35 36 -106 67 -154 67 -10 0 -35 17 -57 39 -63 63 -161 86 -244 57z"/>
<path d="M1540 605 l0 -415 105 0 105 0 0 151 c0 150 0 150 23 147 17 -2 39
-34 100 -150 l78 -148 115 0 c63 0 114 3 114 6 0 18 -156 294 -166 294 -28 0
-22 -24 36 -133 33 -62 60 -117 60 -121 0 -4 -30 -6 -67 -4 l-68 3 -78 148
-78 147 -55 0 -54 0 0 -150 0 -150 -65 0 -65 0 0 395 c0 388 0 395 -20 395
-20 0 -20 -7 -20 -415z"/>
<path d="M1620 641 c0 -374 0 -381 20 -381 20 0 20 7 20 360 l0 360 123 0
c146 0 211 -16 258 -62 44 -44 61 -92 61 -165 -1 -125 -62 -187 -213 -217
l-27 -6 72 -132 c55 -103 76 -134 94 -136 12 -2 22 0 22 3 0 4 -27 57 -60 117
-33 61 -60 112 -60 114 0 1 23 10 52 20 104 34 164 128 161 254 -2 104 -52
179 -147 222 -45 20 -70 23 -213 26 l-163 4 0 -381z"/>
<path d="M2240 605 l0 -415 270 0 270 0 0 100 0 100 -170 0 -170 0 0 35 c0 28
-4 35 -20 35 -18 0 -20 -7 -20 -55 l0 -55 170 0 170 0 0 -60 0 -60 -230 0
-230 0 0 395 c0 388 0 395 -20 395 -20 0 -20 -7 -20 -415z"/>
<path d="M2320 805 l0 -215 160 0 c153 0 160 1 160 20 0 19 -7 20 -140 20
l-140 0 0 175 0 175 185 0 185 0 0 -60 0 -60 -120 0 c-113 0 -120 -1 -120 -20
0 -19 7 -20 140 -20 l140 0 0 100 0 100 -225 0 -225 0 0 -215z"/>
<path d="M3048 622 c-97 -218 -180 -405 -183 -414 -7 -17 2 -18 107 -18 l114
0 15 43 16 42 121 3 c67 1 122 6 122 10 -1 28 -20 33 -140 30 l-123 -3 -16
-43 -15 -42 -74 0 c-64 0 -73 2 -68 16 4 9 77 178 164 376 131 299 160 358
176 356 16 -3 129 -245 316 -680 l29 -68 -63 0 -63 0 -38 85 -38 85 -184 0
-184 0 -20 -47 c-41 -95 -41 -93 -15 -93 20 0 27 9 42 50 l18 50 160 -2 160
-3 35 -82 36 -83 108 0 c85 0 108 3 105 13 -2 7 -84 194 -183 415 l-180 402
-40 0 -40 0 -177 -398z"/>
<path d="M3750 605 l0 -415 105 0 105 0 0 150 c0 149 0 150 23 150 18 0 35
-25 100 -150 l78 -150 115 0 c63 0 114 3 114 6 0 19 -155 294 -166 294 -28 0
-22 -24 40 -140 l64 -121 -71 3 -71 3 -79 148 -78 147 -55 0 -54 0 0 -150 0
-150 -65 0 -65 0 0 395 c0 388 0 395 -20 395 -20 0 -20 -7 -20 -415z"/>
<path d="M3830 641 c0 -374 0 -381 20 -381 20 0 20 7 20 361 l0 361 143 -4
c125 -3 148 -6 190 -27 28 -14 58 -38 72 -60 51 -77 50 -201 -1 -269 -29 -37
-113 -82 -156 -82 -15 0 -30 -5 -33 -10 -4 -6 24 -68 62 -138 53 -99 73 -128
91 -130 12 -2 22 0 22 3 0 4 -27 58 -60 120 l-61 113 52 17 c105 35 165 129
162 255 -2 104 -52 179 -147 222 -45 20 -70 23 -213 26 l-163 4 0 -381z"/>
<path d="M1700 881 l0 -58 100 -6 c56 -3 107 -10 114 -16 23 -19 25 -50 6 -73
-15 -19 -30 -23 -94 -26 l-76 -4 0 36 c0 32 -3 36 -25 36 -24 0 -25 -3 -25
-55 l0 -55 99 0 c85 0 102 3 131 23 61 41 65 112 7 147 -24 15 -50 20 -109 20
-76 0 -78 0 -78 25 0 24 2 25 68 25 88 0 132 -13 167 -50 23 -24 30 -41 33
-87 3 -49 0 -63 -19 -87 -32 -41 -74 -55 -188 -62 -92 -6 -101 -9 -101 -27 0
-19 4 -20 108 -13 174 11 233 52 240 170 5 74 -11 112 -60 150 -46 34 -99 46
-205 46 l-93 0 0 -59z"/>
<path d="M2400 805 l0 -135 140 0 140 0 0 -60 0 -60 -180 0 -180 0 0 -140 0
-140 191 0 c176 0 190 1 187 18 -3 15 -20 17 -171 20 l-167 2 0 100 0 100 180
0 180 0 0 100 0 99 -137 3 -138 3 -3 93 -3 92 126 0 c118 0 125 1 125 20 0 19
-7 20 -145 20 l-145 0 0 -135z"/>
<path d="M3910 881 l0 -58 102 -6 c90 -5 105 -8 120 -27 22 -28 22 -32 -1 -61
-16 -20 -30 -24 -95 -27 l-76 -4 0 36 c0 32 -3 36 -25 36 -24 0 -25 -3 -25
-55 l0 -55 99 0 c85 0 102 3 131 23 61 41 65 112 7 147 -24 15 -50 20 -109 20
-76 0 -78 0 -78 25 0 24 2 25 68 25 88 0 132 -13 167 -50 23 -24 30 -41 33
-87 3 -49 0 -63 -19 -87 -32 -41 -74 -55 -188 -62 -92 -6 -101 -9 -101 -27 0
-19 4 -20 108 -13 169 11 231 52 240 160 6 71 -2 98 -39 141 -41 46 -106 65
-226 65 l-93 0 0 -59z"/>
<path d="M3158 674 l-106 -239 166 -3 c90 -1 167 0 169 2 3 2 -23 68 -58 145
-34 77 -64 140 -65 138 -1 -2 -66 -156 -81 -194 -3 -8 3 -13 15 -13 14 0 26
14 42 53 l23 52 32 -70 32 -70 -100 -3 c-55 -1 -102 -1 -104 2 -4 4 125 325
136 338 3 4 60 -117 126 -269 66 -151 125 -277 132 -280 44 -18 35 11 -93 297
-73 162 -139 308 -146 324 -14 28 -16 24 -120 -210z"/>
<path d="M290 580 l0 -40 64 0 64 0 40 -162 39 -163 194 -3 195 -2 37 157 c20
87 37 161 37 165 0 4 -104 9 -232 10 l-232 3 -9 38 -9 37 -94 0 -94 0 0 -40z
m555 -125 c0 -19 -8 -20 -152 -23 l-153 -3 0 26 0 26 153 -3 c144 -3 152 -4
152 -23z m3 -82 l3 -23 -155 0 -156 0 0 25 0 26 153 -3 c149 -3 152 -3 155
-25z m2 -83 c0 -19 -7 -20 -155 -20 -148 0 -155 1 -155 20 0 19 7 20 155 20
148 0 155 -1 155 -20z"/>
<path d="M508 155 c-9 -21 -8 -28 7 -45 31 -34 75 -20 75 25 0 48 -62 63 -82
20z"/>
<path d="M812 168 c-39 -39 17 -100 58 -63 34 31 20 75 -25 75 -12 0 -26 -5
-33 -12z"/>
</g>
</svg>
